<?xml version="1.0" encoding="UTF-8" standalone="no"?>
<!DOCTYPE svg PUBLIC "-//W3C//DTD SVG 1.1//EN" "http://www.w3.org/Graphics/SVG/1.1/DTD/svg11.dtd">
<svg width="100%" height="100%" viewBox="0 0 32 32" version="1.1" xmlns="http://www.w3.org/2000/svg" xmlns:xlink="http://www.w3.org/1999/xlink" xml:space="preserve" xmlns:serif="http://www.serif.com/" style="fill-rule:evenodd;clip-rule:evenodd;stroke-linejoin:round;stroke-miterlimit:2;">
    <path d="M0,8.421C0,3.77 3.77,0 8.421,0L23.579,0C28.23,0 32,3.77 32,8.421L32,23.579C32,28.23 28.23,32 23.579,32L8.421,32C3.77,32 0,28.23 0,23.579L0,8.421Z" style="fill:rgb(70,95,255);fill-rule:nonzero;"/>
    <g>
        <g transform="matrix(1.033073,0,0,1.033073,-2.747472,-0.835493)">
            <g transform="matrix(25.861549,0,0,25.861549,10.276249,25.2617)">
                <path d="M0.135,-0.221L0.144,-0.35C0.19,-0.35 0.23,-0.36 0.263,-0.379C0.297,-0.398 0.325,-0.424 0.347,-0.457C0.369,-0.489 0.385,-0.526 0.396,-0.567C0.406,-0.608 0.412,-0.65 0.412,-0.693L0.542,-0.693C0.542,-0.632 0.533,-0.573 0.515,-0.516C0.497,-0.459 0.47,-0.409 0.435,-0.365C0.4,-0.32 0.358,-0.285 0.307,-0.259C0.257,-0.234 0.199,-0.221 0.135,-0.221ZM0.065,-0L0.065,-0.693L0.194,-0.693L0.194,-0L0.065,-0ZM0.417,-0L0.277,-0.307L0.397,-0.357L0.576,-0L0.417,-0Z" style="fill:white;fill-rule:nonzero;"/>
            </g>
            <g transform="matrix(25.861549,0,0,25.861549,25.429501,25.2617)">
            </g>
        </g>
    </g>
</svg>
